<?xml version="1.0" standalone="no"?>
<!DOCTYPE svg PUBLIC "-//W3C//DTD SVG 20010904//EN"
 "http://www.w3.org/TR/2001/REC-SVG-20010904/DTD/svg10.dtd">
<svg version="1.0" xmlns="http://www.w3.org/2000/svg"
 width="569.000000pt" height="569.000000pt" viewBox="0 0 569.000000 569.000000"
 preserveAspectRatio="xMidYMid meet">
<metadata>
Created by potrace 1.14, written by Peter Selinger 2001-2017
</metadata>
<g transform="translate(0.000000,569.000000) scale(0.100000,-0.100000)"
fill="#000000" stroke="none">
<path d="M4146 3610 c-14 -17 -28 -45 -31 -63 -33 -196 -43 -509 -24 -757 18
-237 17 -260 -14 -348 -65 -183 -154 -304 -245 -331 -79 -23 -113 -4 -154 84
-20 44 -23 65 -23 185 0 116 3 145 24 203 24 72 67 131 101 140 35 9 50 -18
50 -92 0 -70 10 -89 53 -104 26 -9 67 13 73 40 21 81 -23 207 -84 245 -55 34
-168 32 -238 -4 -131 -69 -214 -240 -214 -449 -1 -257 -85 -424 -137 -273 -19
55 -79 696 -67 715 3 5 12 9 20 9 24 0 115 50 140 77 31 33 31 73 -1 103 -23
21 -29 22 -105 16 -73 -7 -80 -6 -80 11 -1 32 -19 156 -30 211 -14 65 -51 112
-89 112 -68 0 -93 -57 -114 -265 l-12 -129 -90 -21 c-50 -11 -96 -24 -103 -29
-22 -13 -14 -63 13 -85 27 -20 104 -41 155 -41 36 0 36 -3 45 -155 15 -254 57
-480 108 -582 27 -53 92 -118 133 -133 67 -26 162 3 207 62 15 19 36 55 47 82
l21 47 39 -43 c21 -24 62 -57 91 -73 49 -27 63 -30 144 -30 70 0 99 5 130 20
95 47 168 159 219 335 l24 85 6 -40 c43 -265 86 -405 155 -512 40 -62 79 -88
123 -81 18 2 25 12 32 47 9 44 5 97 -30 336 -37 257 9 536 94 566 31 12 38
-10 46 -156 14 -229 41 -330 106 -389 47 -42 73 -50 147 -44 50 4 60 9 93 45
40 42 74 121 85 196 4 26 10 47 14 47 3 0 14 -19 24 -41 50 -107 140 -179 226
-179 75 0 116 36 164 145 17 40 17 39 13 -145 -9 -400 -84 -597 -218 -576 -53
9 -62 1 -41 -35 37 -62 126 -109 207 -109 26 0 63 10 97 28 135 68 204 254
216 582 11 326 -48 903 -104 1014 -38 76 -93 97 -145 56 -49 -38 -59 -87 -64
-294 -7 -319 -31 -483 -75 -507 -49 -26 -74 50 -89 278 -17 262 -40 341 -106
369 -105 44 -169 -60 -166 -268 3 -184 -38 -427 -79 -464 -48 -43 -75 18 -84
191 -13 252 -32 346 -82 414 -43 57 -131 78 -192 46 -50 -25 -130 -143 -132
-192 0 -16 -1 -15 -8 2 -5 11 -14 128 -20 260 -15 308 -29 487 -42 553 -21
106 -98 147 -153 82z"/>
<path d="M602 3312 c-79 -29 -179 -102 -276 -202 -244 -253 -369 -601 -312
-866 35 -157 125 -294 240 -363 118 -71 204 -91 498 -115 188 -15 230 -30 236
-80 4 -35 -34 -78 -132 -147 -48 -34 -96 -57 -150 -74 -156 -46 -244 -54 -381
-34 -66 10 -79 10 -92 -4 -22 -22 -10 -57 40 -119 58 -71 137 -124 219 -145
58 -15 77 -16 152 -5 159 23 306 86 443 189 79 60 114 101 145 170 79 180
-108 409 -393 482 -41 10 -146 26 -234 36 -228 23 -333 49 -360 88 -33 47 -8
239 50 392 33 89 91 197 152 283 63 89 246 271 305 302 46 24 47 24 67 6 12
-11 21 -31 21 -48 0 -37 16 -68 36 -68 9 0 29 14 46 30 29 29 30 34 26 95 -5
78 -40 134 -112 179 -61 38 -156 45 -234 18z"/>
<path d="M2727 2749 c-24 -14 -47 -69 -47 -114 0 -37 -10 -44 -30 -20 -18 22
-102 19 -148 -4 -92 -47 -163 -155 -203 -306 -21 -84 -20 -166 3 -265 17 -70
76 -176 124 -220 37 -34 50 -40 88 -40 38 0 48 5 79 40 40 44 68 95 102 184
l22 60 38 -75 c85 -169 181 -257 225 -204 15 18 10 47 -29 155 -45 125 -62
248 -70 495 -8 238 -13 261 -67 304 -29 23 -59 26 -87 10z m-47 -316 c0 -106
-50 -335 -91 -414 -24 -47 -54 -52 -70 -12 -15 41 -12 202 6 279 25 107 86
194 136 194 16 0 19 -8 19 -47z"/>
<path d="M2113 2588 c-4 -7 -11 -148 -14 -313 -4 -165 -11 -314 -17 -331 -17
-52 -32 -74 -51 -74 -43 0 -57 45 -76 260 -18 192 -30 259 -57 318 -26 54 -52
72 -103 72 -32 0 -47 -6 -67 -27 -45 -48 -50 -75 -58 -328 -6 -194 -11 -251
-26 -295 -17 -50 -22 -55 -48 -55 -25 0 -31 6 -43 40 -7 21 -20 111 -28 200
-17 181 -30 262 -52 317 -34 85 -123 116 -177 62 -100 -101 -60 -474 72 -663
56 -80 109 -114 185 -119 57 -4 66 -1 95 23 39 33 70 89 92 170 l17 60 16 -31
c29 -57 106 -132 152 -150 173 -66 269 93 282 466 5 165 -9 314 -36 383 -11
29 -44 37 -58 15z"/>
</g>
</svg>
